<svg width="680" height="360" viewBox="0 0 680 360" xmlns="http://www.w3.org/2000/svg">
  <defs>
    <clipPath id="card-clip">
      <rect x="0" y="0" width="680" height="360" rx="20"/>
    </clipPath>
  </defs>

  <rect x="0" y="0" width="680" height="360" rx="20" fill="#111827" clip-path="url(#card-clip)"/>
  <rect x="340" y="0" width="340" height="360" fill="#F9FAFB"/>

  <!-- LEFT PANEL -->
  <rect x="36" y="32" width="32" height="32" rx="8" fill="#1F2937"/>
  <text x="52" y="54" font-family="Georgia, serif" font-size="16" font-weight="700" fill="#F9FAFB" text-anchor="middle">C</text>
  <text x="78" y="50" font-family="Georgia, serif" font-size="20" font-weight="700" fill="#F9FAFB">Cutify</text>
  <text x="78" y="66" font-family="Arial, sans-serif" font-size="11" fill="#6B7280">Berber randevu yönetim sistemi</text>

  <text x="36" y="128" font-family="Georgia, serif" font-size="29" font-weight="700" fill="#F9FAFB">Bakımlı kalmak</text>
  <text x="36" y="164" font-family="Georgia, serif" font-size="29" font-weight="700" fill="#F9FAFB">için doğru</text>
  <text x="36" y="200" font-family="Georgia, serif" font-size="29" font-weight="700" fill="#10B981">yerdesin.</text>

  <text x="36" y="238" font-family="Arial, sans-serif" font-size="12" fill="#9CA3AF">Berberleri görüntüle, uygun saatleri</text>
  <text x="36" y="254" font-family="Arial, sans-serif" font-size="12" fill="#9CA3AF">incele, randevunu oluştur ve profilini</text>
  <text x="36" y="270" font-family="Arial, sans-serif" font-size="12" fill="#9CA3AF">kolayca yönet.</text>

  <rect x="36" y="292" width="78" height="24" rx="12" fill="#1F2937"/>
  <text x="75" y="308" font-family="Arial, sans-serif" font-size="10" fill="#10B981" text-anchor="middle">✓ Randevu</text>
  <rect x="122" y="292" width="88" height="24" rx="12" fill="#1F2937"/>
  <text x="166" y="308" font-family="Arial, sans-serif" font-size="10" fill="#10B981" text-anchor="middle">✓ Berber Bul</text>
  <rect x="218" y="292" width="68" height="24" rx="12" fill="#1F2937"/>
  <text x="252" y="308" font-family="Arial, sans-serif" font-size="10" fill="#10B981" text-anchor="middle">✓ Profil</text>

  <text x="36" y="342" font-family="Arial, sans-serif" font-size="18" fill="#374151">✂</text>
  <line x1="62" y1="333" x2="308" y2="333" stroke="#374151" stroke-width="0.8" stroke-dasharray="5,4"/>

  <!-- RIGHT PANEL -->
  <text x="362" y="62" font-family="Georgia, serif" font-size="22" font-weight="700" fill="#111827">Giriş Yap</text>
  <text x="362" y="82" font-family="Arial, sans-serif" font-size="12" fill="#6B7280">Hesabınla giriş yap ve devam et.</text>

  <rect x="362" y="100" width="280" height="42" rx="10" fill="#EFF6FF" stroke="#BFDBFE" stroke-width="1"/>
  <text x="378" y="126" font-family="Arial, sans-serif" font-size="12" fill="#9CA3AF">E-posta adresiniz</text>

  <rect x="362" y="152" width="280" height="42" rx="10" fill="#EFF6FF" stroke="#BFDBFE" stroke-width="1"/>
  <text x="378" y="178" font-family="Arial, sans-serif" font-size="14" fill="#9CA3AF">Şifreniz</text>

  <rect x="362" y="206" width="280" height="44" rx="10" fill="#111827"/>
  <text x="502" y="233" font-family="Arial, sans-serif" font-size="13" font-weight="600" fill="#F9FAFB" text-anchor="middle">Giriş Yap</text>

  <text x="362" y="272" font-family="Arial, sans-serif" font-size="12" fill="#6B7280">Hesabınız yoksa</text>
  <text x="468" y="272" font-family="Arial, sans-serif" font-size="12" font-weight="700" fill="#111827">kayıt olun</text>

  <line x1="362" y1="296" x2="642" y2="296" stroke="#E5E7EB" stroke-width="0.8"/>

  <text x="402" y="320" font-family="Georgia, serif" font-size="18" font-weight="700" fill="#111827" text-anchor="middle">500+</text>
  <text x="402" y="338" font-family="Arial, sans-serif" font-size="10" fill="#9CA3AF" text-anchor="middle">Berber</text>
  <line x1="452" y1="306" x2="452" y2="344" stroke="#E5E7EB" stroke-width="0.8"/>
  <text x="502" y="320" font-family="Georgia, serif" font-size="18" font-weight="700" fill="#111827" text-anchor="middle">12K+</text>
  <text x="502" y="338" font-family="Arial, sans-serif" font-size="10" fill="#9CA3AF" text-anchor="middle">Kullanıcı</text>
  <line x1="552" y1="306" x2="552" y2="344" stroke="#E5E7EB" stroke-width="0.8"/>
  <text x="602" y="320" font-family="Georgia, serif" font-size="18" font-weight="700" fill="#10B981" text-anchor="middle">4.9★</text>
  <text x="602" y="338" font-family="Arial, sans-serif" font-size="10" fill="#9CA3AF" text-anchor="middle">Puan</text>
</svg>
